<svg version="1" xmlns="http://www.w3.org/2000/svg" width="400" height="400" viewBox="0 0 300.000000 300.000000"><path d="M147.7 33.6c-.1.1-4 .4-8.6.8-4.6.3-8.6.8-9 1-.4.3-2.7.7-5.1 1.1-10.8 1.6-31.7 10.2-43 17.8-11 7.3-26.6 22.3-27.6 26.5-.7 2.6 1.1 5.2 3.5 5.2 1 0 6-4.2 11.2-9.3C92 54.2 119.1 43 150.4 43c12.8 0 20 1 32.3 4.6 18.2 5.2 35.5 15.7 49.3 29.9 7.6 7.7 9.8 8.9 12.3 6.7 3.1-2.7 1.9-5.1-7.6-14.5-20.3-20.2-45.5-32.2-73.8-35.2-6-.6-14.9-1.2-15.2-.9z"/><path d="M142.3 64.2C116 67 93 79.3 77.8 98.8c-4.6 5.9-5.2 8.7-2.3 10.8 1.6 1.2 5.5.8 5.5-.6 0-1.7 14.7-16.4 20.6-20.6 13.6-9.7 31.1-15.4 47.7-15.6 9.4-.1 11.2.1 22.7 2.9 17.2 4.1 32.7 14.6 46.7 31.6 3.5 4.1 8.3 3.1 8.3-1.8 0-3.1-9.4-13.9-18.4-21.1-14.5-11.6-32.3-18.8-49.3-20-4.3-.3-8.2-.6-8.8-.8-.5-.1-4.2.1-8.2.6z"/><path d="M140.5 96.6c-9.4 1.6-17 4.6-24.1 9.5-8 5.5-10.9 8.3-15.9 15.4-7.2 10.2-7.7 15.5-1.5 15.5 2.6 0 3.3-.7 5.6-5.2 3.8-7.6 14.5-17.8 22.4-21.6 8.6-4.1 14.7-5.4 24.5-5.4 18.1.1 33.6 9.1 43.9 25.4 2.9 4.5 4.2 5.8 6.2 5.8 1.6 0 2.8-.8 3.5-2.4 2.8-6-12.8-24.4-26.1-30.9-13-6.4-25.5-8.4-38.5-6.1z"/><path d="M148 128.8c-11.8 1.5-21.4 9.5-24.4 20.1-2.2 7.7-1.5 13.6 2.2 21.1 8 15.9 28.5 19.9 42.9 8.3 12.5-10 13.1-31.1 1.1-41.9-5.9-5.3-15.1-8.5-21.8-7.6zm12.7 11.7c3.6 2.3 4.9 4 7.3 9 3.5 7.2 1.9 14.9-4.2 21.2-10.6 11-30.1 4.4-32.5-11-1.1-6.9 2.8-15.1 9.1-19.2 5.5-3.6 14.7-3.6 20.3 0zM92.9 198.6c-.9 1.1-.9 1.8-.1 2.6 1.4 1.4 4.2.3 4.2-1.6 0-2-2.7-2.7-4.1-1zM132 213.4c0 9.1.4 16.7.8 17 1.5.9 2.8-.9 3-4.3.3-4 .1-3.7 2.8-4.5 1.8-.5 2.6.1 4.8 3.8 2.9 5 4.1 6 5.6 5.1.7-.4 0-2.5-1.6-5.6l-2.7-4.9 2.6-2.6c3.1-3 3.4-5.9 1.1-9.2-2-2.9-7.2-3-10.2-.2-2.5 2.3-2.5 2.2-2.3-5.8.1-4.6-.1-5.2-1.9-5.2-1.9 0-2 .6-2 16.4zm13.3-3.5c2 .2.1 5.6-2.3 6.8-4.6 2.1-6.5 2-6.8-.4-.4-2.7 4.1-7.3 6.6-6.8.9.2 2.1.4 2.5.4zM155.9 197.2c-.1.2-.2 7-.3 15.1-.2 16 .5 18.7 4.7 18.7 2.8 0 5.4-1.6 4.3-2.7-.4-.4-1.7-.8-2.9-.8-2.1 0-2.2-.4-2.5-15.3-.2-12.6-.5-15.2-1.7-15.2-.8 0-1.6.1-1.6.2zM243.9 197.2c-.1.2-.2 6.1-.3 13.3-.2 13.7.6 17.5 4.3 19.5 5.9 3.1 14.1-1.1 15.6-8 .8-3.8-.2-9.8-2-12.7-2.6-3.9-9.4-4.3-13-.6-1.6 1.5-1.7 1.5-1.5-.3.7-5.9-.1-11.4-1.5-11.4-.8 0-1.6.1-1.6.2zM258 211c2.8 2.8 2.8 10.8 0 13.7-5.9 6.4-12.2 1.9-10.5-7.6.9-5.5 2.9-7.6 7.3-8 .6 0 2.1.8 3.2 1.9zM36.2 199.7c.2 1.2 1.3 1.8 3.3 1.9 1.7.1 3.6.2 4.3.2.9.2 1.2 3.7 1.2 14.1 0 11 .3 14 1.4 14.4.8.3 1.7.3 2 0 .3-.4.6-7 .6-14.8v-14.1l4.2.1c3.3 0 4.3-.4 4.6-1.8.3-1.5-.7-1.7-10.8-1.7-10.1 0-11.1.2-10.8 1.7zM191.9 199.5c0 .8-.1 7.1-.1 14s.1 13.5.1 14.8c.1 2.2.4 2.3 7.1 2.2 7.7-.2 11.5-2 13.1-6.2 1.3-3.4.3-7.6-2.2-9.9-1.6-1.5-1.7-1.9-.5-3.3.7-.9 1.6-2.9 1.9-4.5.4-2.3-.1-3.6-2.3-5.8-2.6-2.5-3.5-2.8-9.9-2.8-5.6 0-7.1.3-7.2 1.5zm14.8 4.1c1.4 1.9.8 5.4-1.1 6.7-.6.4-3.1.6-5.6.5l-4.5-.3v-4c0-2.2.4-4.3.9-4.6 1.7-1.3 9 0 10.3 1.7zm-2 11.3c2.2.2 4.3 3.2 4.3 6.1 0 4-3.5 6.2-9.1 5.8l-4.3-.3.1-4.5c.1-7.9 0-7.6 4.1-7.4 2 .1 4.2.2 4.9.3zM56 206.8c0 .6 6.1 22.6 6.4 22.8 0 .1 1 .4 2.1.8 1.8.5 2.3-.3 4.4-7.9 1.3-4.6 2.7-8.2 3.1-8 .4.2 1.5 3.5 2.5 7.2 2.1 8.1 3.1 9.6 5.4 8.4 2.2-1.3 8.3-22.3 6.7-23.3-1.7-1.1-3.2 1.6-5.2 9.2-1 3.9-2.1 7-2.5 7-.3 0-1.5-3.2-2.5-7.2-2.1-8-3.8-10.5-6-8.7-.8.6-1.4 1.7-1.4 2.4s-1 4.4-2.1 8.1l-2.1 6.9-1.8-6c-1-3.3-2.1-7.2-2.4-8.6-.3-1.5-1.5-2.9-2.6-3.2-1.1-.3-2-.2-2 .1zM93.6 206.7c-.3.4-.6 5.9-.6 12.4 0 10.6.2 11.7 1.8 11.5 1.5-.3 1.7-1.6 1.7-11.9.1-8.1-.3-11.8-1.1-12.1-.7-.3-1.5-.2-1.8.1zM104.9 207.2c-.3 7.4.4 22.4 1.1 22.6 1.9.7 2.5-.5 2.6-5.3.2-8.8.4-10 2.2-12.3 2.1-2.7 5.4-3.5 7.8-1.8 1.4 1.1 1.8 3 1.9 10.1.1 7 .5 8.9 1.8 9.7 1.9 1 2.1-.1 1.8-12.2-.2-10.5-5.6-14.9-12.2-10.1-3.5 2.6-3.5 2.6-4.2.1-.6-2.2-2.7-2.8-2.8-.8zM172.8 207.5c-6.7 3.7-8.2 15.2-2.8 20.7 2.8 2.7 3.6 3 7.7 2.5 4.8-.5 8-2.7 6.8-4.7-.5-.8-1-.8-2 0-3.8 3.1-10.6 1.4-11.8-2.9-.4-1.8-.1-2.1 3.1-2.1 5.1 0 10.5-2.9 11.6-6.3 2.2-6.1-6-10.8-12.6-7.2zm7.3 2.5c2.3 1.3 2.5 4.3.4 6-1.8 1.5-9.1 2.5-9.8 1.3-.9-1.5 1.6-5.7 4.3-7 3-1.5 2.7-1.5 5.1-.3zM221.2 207.8c-4.8 3.7-6 13.9-2.3 19.2 2.2 3 8.1 4.8 11.8 3.4 1.4-.5 3.5-2.1 4.6-3.6 2.6-3.5 2.8-12.5.3-16.3-3-4.6-10.2-5.9-14.4-2.7zm9.5 2.7c2.6 1.8 3.8 6.9 2.8 11.5-.8 3.9-4.6 6.5-8.1 5.6-6-1.6-6.9-15.3-1-17.6 3-1.3 3.9-1.2 6.3.5zM62.3 233.7c-2.3 1.1-3.6 2.6-4.2 5-1.5 5.3.3 8.2 6.9 11 6.4 2.9 9 5 9 7.3 0 4.8-6.6 7-12.4 4-2.9-1.4-3.8-1.5-4.6-.4-1.7 2 3.2 4.7 9.4 5.2 4.5.4 5.6.1 8.1-2.1 2.3-2 2.9-3.3 2.9-6.5 0-5.2-2.1-7.6-8.7-10.1-6.4-2.3-8.1-4.6-6.4-8.1 1.2-2.3 1.9-2.5 6.9-2.3 4 .1 5.8-.2 6.2-1.2 1-2.7-8.6-4-13.1-1.8zM108.4 248c.1 13.1.4 16.2 1.6 17 1.9 1.2 5.1 1.2 7 0 1.8-1.1.5-2.5-2.3-2.5-2.1 0-2.2-.4-2.5-15.3-.2-14.1-.4-15.2-2.1-15.2-1.8 0-1.9 1-1.7 16zM164.3 233.6c-.3.8-.1 2 .5 2.6 1.5 1.5 4.3.2 3.6-1.6-.8-2.1-3.4-2.8-4.1-1zM150.6 235.2c-.3.7-.7 2.6-1.1 4.1-.4 1.9-1.1 2.7-1.9 2.4-.8-.3-1.6.3-1.9 1.4-.4 1.4 0 1.9 1.6 1.9 2.1 0 2.2.4 2 9-.2 6.9.1 9.3 1.3 10.5 1.9 1.9 5.4 1.9 8 .1 1.6-1.2 1.6-1.5.4-2-.8-.3-2.4-.4-3.5-.3-1.8.2-2-.5-2.3-8.6l-.3-8.7h2.6c2.3 0 2.7-.4 2.4-2.8 0-.4-1.1-.6-2.5-.6-2.1.1-2.4-.3-2.4-3.7 0-3.7-1.6-5.4-2.4-2.7zM87.3 242c-3.8 1.5-5.7 5.7-5.7 12.3.1 5.5.4 6.3 3.3 8.9 4.5 4 10.2 3.9 14.2-.3 2.7-2.9 3.4-5.6 3-11.4-.7-8-7.5-12.4-14.8-9.5zm9.4 4.7c3.8 4.9 1.9 14.6-3.1 15.9-5 1.2-8.6-3-8.6-10.2 0-6.8 8-10.7 11.7-5.7zM122.3 241.7c-.9.3-1.3 3.2-1.3 9.7 0 8 .3 9.7 2.2 12.1 1.9 2.4 2.6 2.7 6.2 2.2 2.5-.4 4.6-1.4 5.8-2.9l1.8-2.3v2.2c0 1.3.5 2.3 1 2.3.6 0 1.3.1 1.7.2 1.4.5.9-23.1-.4-23.6-1.9-.8-2.6 1.1-2.8 8.3-.2 7.5-2.3 11.7-6.2 12.7-4.4 1.1-5.6-1.4-5.8-11.5-.1-9.5-.2-10.1-2.2-9.4zM165.3 241.8c-1.2.8-1.3 23.2 0 23.2h1.7c1.2 0 1.4-22.6.2-23.4-.4-.2-1.3-.2-1.9.2zM180.3 242c-3.9 1.6-5.9 7.6-5.4 15.8 0 1.3 1.4 3.7 3 5.3 4.1 4.1 10.1 4.1 14.2 0 1.6-1.6 3-4.1 3-5.5.1-1.4.2-3.2.2-3.9.1-.6-.2-2.9-.6-4.9-1.3-6.4-7.8-9.4-14.4-6.8zm9.6 4.5c1 .9 1.5 3.6 1.5 7.1.1 4.7-.3 5.9-2.3 7.5-2.9 2.4-5.2 2.4-8.1.1-3.8-3.1-3-14.8 1.2-16.6 1.9-.7 6.1.3 7.7 1.9zM202.5 241.6c-.6.3-.9 5-.7 12.2.3 9.5.6 11.9 1.8 11.9 1.7 0 1.5.7 2.3-13.4.1-2.5 4.7-8.3 6.5-8.3.7 0 2.1.6 3.2 1.4 1.6 1.2 1.9 2.8 2 9.9.2 9 .7 10.9 2.7 10.1 1.1-.4 1.5-8.4.8-18.6-.2-2.6-4.1-5.8-7.1-5.8-2.5 0-6.7 2.3-8.2 4.4-.4.6-.8.1-.8-1.1 0-2.3-.9-3.3-2.5-2.7zM231.5 242.2c-2.7 1.5-3.5 2.8-3.5 5.9 0 3.1 2.2 5.2 7.3 6.9 4.1 1.3 5.6 3.4 4.1 5.8-1.4 2.1-5.1 2.5-8.5.8-2.3-1.2-2.9-1.2-3.3 0-.8 2 3.3 4.4 7.7 4.4 6.8 0 10.8-6.6 6.8-11.3-.7-.9-3.2-2.4-5.7-3.3-3.4-1.3-4.4-2.2-4.4-3.9 0-2.6 2.4-3.6 7-2.9 2.2.4 3 .1 3-.9 0-2.7-6.7-3.7-10.5-1.5z"/></svg>